<?xml version="1.0" standalone="no"?>
<!DOCTYPE svg PUBLIC "-//W3C//DTD SVG 20010904//EN"
 "http://www.w3.org/TR/2001/REC-SVG-20010904/DTD/svg10.dtd">
<svg version="1.0" xmlns="http://www.w3.org/2000/svg"
 width="458.000000pt" height="458.000000pt" viewBox="0 0 458.000000 458.000000"
 preserveAspectRatio="xMidYMid meet">
<metadata>
Created by potrace 1.14, written by Peter Selinger 2001-2017
</metadata>
<g transform="translate(0.000000,458.000000) scale(0.100000,-0.100000)"
fill="#000000" stroke="none">
<path d="M2125 4573 c-477 -44 -890 -204 -1248 -485 -196 -153 -414 -399 -541
-611 -87 -145 -148 -278 -227 -497 -36 -101 -84 -342 -96 -490 -15 -164 -5
-436 21 -573 2 -12 7 -40 11 -62 8 -44 38 -164 60 -235 174 -584 612 -1101
1167 -1377 58 -29 130 -62 160 -73 29 -11 62 -24 73 -29 79 -33 308 -93 410
-107 28 -3 59 -8 70 -10 86 -18 381 -24 535 -10 191 16 466 86 660 168 681
289 1186 894 1344 1611 24 109 27 129 43 260 15 124 8 454 -12 572 -36 210
-84 382 -150 540 -279 666 -837 1152 -1538 1339 -94 25 -113 29 -227 46 -36 6
-83 13 -105 16 -42 7 -358 12 -410 7z"/>
</g>
</svg>
