<?xml version="1.0" standalone="no"?>
<!DOCTYPE svg PUBLIC "-//W3C//DTD SVG 20010904//EN"
 "http://www.w3.org/TR/2001/REC-SVG-20010904/DTD/svg10.dtd">
<svg version="1.0" xmlns="http://www.w3.org/2000/svg"
 width="500.000000pt" height="500.000000pt" viewBox="0 0 500.000000 500.000000"
 preserveAspectRatio="xMidYMid meet">
<metadata>
Created by potrace 1.14, written by Peter Selinger 2001-2017
</metadata>
<g transform="translate(0.000000,500.000000) scale(0.100000,-0.100000)"
fill="#000000" stroke="none">
<path d="M2976 3982 c-2 -1 -144 -4 -317 -7 -173 -2 -325 -6 -339 -9 -14 -2
-38 -7 -55 -10 -16 -3 -48 -8 -70 -12 -66 -10 -244 -72 -335 -117 -182 -88
-410 -270 -506 -402 -16 -22 -39 -51 -51 -65 -13 -14 -23 -30 -23 -37 0 -6 -4
-13 -8 -15 -12 -4 -83 -129 -117 -203 -35 -77 -91 -247 -100 -305 -4 -25 -8
-54 -10 -65 -34 -189 -21 -449 31 -625 46 -153 156 -395 187 -408 4 -2 7 -8 7
-14 0 -18 136 -181 212 -253 85 -82 162 -145 176 -145 6 0 12 -4 14 -8 10 -23
254 -154 316 -168 15 -4 32 -10 37 -14 10 -8 154 -45 210 -54 17 -3 41 -8 55
-11 20 -4 123 -13 185 -16 23 -1 211 11 230 15 51 10 111 20 120 21 6 0 16 4
23 8 6 5 12 6 12 2 0 -3 16 1 35 9 19 8 35 13 35 11 0 -6 125 42 200 77 234
108 447 292 603 522 79 116 181 343 201 450 2 12 7 28 10 36 3 8 8 33 12 55 3
22 8 51 11 65 10 54 17 469 8 478 -2 3 0 13 5 23 25 46 32 46 -771 43 -812 -3
-800 -3 -885 -57 -100 -63 -155 -171 -150 -294 6 -130 73 -227 196 -286 l65
-31 403 1 c221 1 402 -1 402 -5 0 -11 -63 -118 -93 -157 -47 -60 -130 -138
-189 -177 -67 -44 -153 -88 -173 -88 -8 0 -15 -5 -15 -10 0 -6 -3 -9 -7 -8 -5
1 -42 -6 -83 -16 -86 -20 -236 -24 -325 -7 -158 29 -302 106 -421 225 -167
167 -241 343 -241 576 0 68 4 134 8 149 5 14 18 58 30 96 80 261 305 473 573
540 103 25 108 26 611 30 204 2 377 3 385 4 13 1 15 33 13 233 -1 128 -2 278
-2 333 l-1 100 -166 0 c-91 0 -167 -1 -168 -3z"/>
</g>
</svg>
